<svg id="_x33_0" enable-background="new 0 0 64 64" height="512" viewBox="0 0 64 64" width="512" xmlns="http://www.w3.org/2000/svg"><g><g><circle cx="15" cy="30" fill="#ff826e" r="2"/><path d="m24 10.87c.06 4.24-2.9 7.99-7.04 8.91l.04 2.22c0 1.1-.9 2-2 2s-2-.9-2-2v-2.23c0-1.85 1.3-3.49 3.09-3.89 2.3-.51 3.94-2.59 3.91-4.95-.04-2.64-2.29-4.89-4.93-4.93-1.39 0-2.64.51-3.58 1.44-.96.95-1.49 2.21-1.49 3.56 0 1.1-.9 2-2 2s-2-.9-2-2c0-2.43.95-4.7 2.68-6.41 1.7-1.67 3.93-2.59 6.28-2.59h.17c4.82.07 8.8 4.05 8.87 8.87z" fill="#ff826e"/><path d="m56.43 33.33c.48-.21 1.01-.33 1.57-.33 2.21 0 4 1.79 4 4s-1.79 4-4 4h-16-4-11c-.45 0-.88-.05-1.3-.14-1.33-.3-2.49-1.03-3.33-2.04-.86-1.04-1.37-2.37-1.37-3.82 0-2.62 1.68-4.85 4.02-5.66-.02-.11-.02-.23-.02-.34 0-2.42 1.72-4.44 4.01-4.9-.01-.03-.01-.07-.01-.1 0-4.25 2.94-7.81 6.9-8.75h.1v1.75h1.05c1.19 0 2.25.71 2.7 1.8 0 .01.01.03.01.04.46 1.09.22 2.35-.62 3.19l-.75.75 2.83 2.83.75-.75c.84-.84 2.1-1.08 3.19-.62.01 0 .03.01.04.01 1.09.45 1.8 1.51 1.8 2.7v1.05h4v-1.05c0-.3.05-.6.14-.88.29-.04.56-.07.86-.07 2.76 0 5 2.24 5 5 0 .84-.21 1.63-.57 2.32z" fill="#e6e9ed"/><path d="m15 43c3.31 0 6 2.69 6 6s-2.69 6-6 6-6-2.69-6-6 2.69-6 6-6zm2 6c0-1.1-.9-2-2-2s-2 .9-2 2 .9 2 2 2 2-.9 2-2z" fill="#fcd770"/><path d="m49 9c3.31 0 6 2.69 6 6s-2.69 6-6 6-6-2.69-6-6 2.69-6 6-6zm2 6c0-1.1-.9-2-2-2s-2 .9-2 2 .9 2 2 2 2-.9 2-2z" fill="#fcd770"/><g fill="#ffc729"><path d="m24.86 41.97c-.84.84-1.08 2.1-.62 3.19 0 .01.01.03.01.04.45 1.09 1.51 1.8 2.7 1.8h1.05v4h-1.05c-1.19 0-2.25.71-2.7 1.8 0 .01-.01.03-.01.04-.46 1.09-.22 2.35.62 3.19l.75.75-2.83 2.83-.75-.75c-.84-.84-2.1-1.08-3.19-.62-.01 0-.03.01-.04.01-1.09.45-1.8 1.51-1.8 2.7v1.05h-4v-1.05c0-1.19-.71-2.25-1.8-2.7-.01 0-.03-.01-.04-.01-1.09-.46-2.35-.22-3.19.62l-.75.75-2.83-2.83.75-.75c.84-.84 1.08-2.1.62-3.19 0-.01-.01-.03-.01-.04-.45-1.09-1.51-1.8-2.7-1.8h-1.05v-4h1.05c1.19 0 2.25-.71 2.7-1.8 0-.01.01-.03.01-.04.46-1.09.22-2.35-.62-3.19l-.75-.75 2.83-2.83.75.75c.84.84 2.1 1.08 3.19.62.01 0 .03-.01.04-.01 1.09-.45 1.8-1.51 1.8-2.7v-1.05h4v1.05c0 1.19.71 2.25 1.8 2.7.01 0 .03.01.04.01 1.09.46 2.35.22 3.19-.62l.29-.28.05-.04c.84 1.01 2 1.74 3.33 2.04l-.09.36zm-3.86 7.03c0-3.31-2.69-6-6-6s-6 2.69-6 6 2.69 6 6 6 6-2.69 6-6z"/><path d="m51.14 26.07c-.09.28-.14.58-.14.88v1.05h-4v-1.05c0-1.19-.71-2.25-1.8-2.7-.01 0-.03-.01-.04-.01-1.09-.46-2.35-.22-3.19.62l-.75.75-2.83-2.83.75-.75c.84-.84 1.08-2.1.62-3.19 0-.01-.01-.03-.01-.04-.45-1.09-1.51-1.8-2.7-1.8h-1.05v-1.75-2.25h1.05c1.19 0 2.25-.71 2.7-1.8 0-.01.01-.03.01-.04.46-1.09.22-2.35-.62-3.19l-.75-.75 2.83-2.83.75.75c.84.84 2.1 1.08 3.19.62.01 0 .03-.01.04-.01 1.09-.45 1.8-1.51 1.8-2.7v-1.05h4v1.05c0 1.19.71 2.25 1.8 2.7.01 0 .03.01.04.01 1.09.46 2.35.22 3.19-.62l.75-.75 2.83 2.83-.75.75c-.84.84-1.08 2.1-.62 3.19 0 .01.01.03.01.04.45 1.09 1.51 1.8 2.7 1.8h1.05v4h-1.05c-1.19 0-2.25.71-2.7 1.8 0 .01-.01.03-.01.04-.46 1.09-.22 2.35.62 3.19l.75.75-2.83 2.83-.75-.75c-.84-.84-2.1-1.08-3.19-.62-.01 0-.03.01-.04.01-.81.33-1.41 1.01-1.66 1.82zm3.86-11.07c0-3.31-2.69-6-6-6s-6 2.69-6 6 2.69 6 6 6 6-2.69 6-6z"/></g></g><g><path d="m49 12c-1.654 0-3 1.346-3 3s1.346 3 3 3 3-1.346 3-3-1.346-3-3-3zm0 4c-.552 0-1-.449-1-1s.448-1 1-1 1 .449 1 1-.448 1-1 1z"/><path d="m49 8c-3.859 0-7 3.14-7 7s3.141 7 7 7 7-3.14 7-7-3.141-7-7-7zm0 12c-2.757 0-5-2.243-5-5s2.243-5 5-5 5 2.243 5 5-2.243 5-5 5z"/><path d="m60.945 18h2.055v-6h-2.055c-.778 0-1.473-.465-1.786-1.222-.303-.726-.143-1.551.409-2.102l1.456-1.456-4.244-4.244-1.456 1.455c-.552.55-1.376.712-2.141.393-.718-.297-1.183-.991-1.183-1.769v-2.055h-6v2.055c0 .778-.465 1.473-1.222 1.786-.728.303-1.551.142-2.103-.409l-1.455-1.456-4.244 4.244 1.456 1.457c.552.551.712 1.376.394 2.14-.299.718-.993 1.183-1.771 1.183h-2.055v2.462c-3.944 1.232-6.709 4.742-6.979 8.874-2.27.793-3.861 2.906-3.995 5.337-2.375 1.12-4.026 3.531-4.026 6.327 0 1.336.383 2.581 1.035 3.644-.53.359-1.208.449-1.851.18-.719-.297-1.184-.991-1.184-1.769v-2.055h-6v2.055c0 .778-.465 1.473-1.222 1.786-.728.303-1.552.142-2.103-.409l-1.455-1.456-4.244 4.244 1.456 1.457c.552.551.712 1.376.394 2.14-.299.718-.993 1.183-1.771 1.183h-2.055v6h2.055c.778 0 1.473.465 1.786 1.222.303.726.143 1.551-.409 2.102l-1.456 1.456 4.244 4.244 1.456-1.455c.551-.551 1.377-.712 2.141-.393.718.297 1.183.991 1.183 1.769v2.055h6v-2.055c0-.778.465-1.473 1.222-1.786.728-.303 1.552-.143 2.103.409l1.456 1.455 4.244-4.244-1.456-1.456c-.552-.551-.712-1.376-.394-2.14.298-.718.992-1.183 1.77-1.183h2.055v-6h-2.055c-.778 0-1.473-.465-1.786-1.222-.303-.726-.143-1.551.409-2.102l.713-.713c.236.024.476.037.719.037h14v5c0 .551-.448 1-1 1h-5c-2.206 0-4 1.794-4 4s1.794 4 4 4h11c.552 0 1 .449 1 1v6h2v-6c0-1.654-1.346-3-3-3h-11c-1.103 0-2-.897-2-2s.897-2 2-2h5c1.654 0 3-1.346 3-3v-5h15c2.757 0 5-2.243 5-5s-2.243-5-5-5c-.033 0-.063.009-.096.01.057-.334.096-.67.096-1.01 0-2.866-2.021-5.266-4.712-5.857.712-.267 1.501-.109 2.036.426l1.456 1.455 4.244-4.244-1.456-1.456c-.552-.551-.712-1.376-.394-2.14.299-.719.993-1.184 1.771-1.184zm-37.618 27.58c.607 1.47 2.027 2.42 3.618 2.42h.055v2h-.055c-1.591 0-3.011.95-3.632 2.452-.616 1.478-.286 3.16.841 4.287l.042.041-1.416 1.416-.042-.042c-1.127-1.126-2.811-1.455-4.318-.827-1.47.607-2.42 2.027-2.42 3.618v.055h-2v-.055c0-1.591-.95-3.011-2.452-3.631-1.478-.616-3.159-.287-4.286.84l-.042.042-1.416-1.416.042-.041c1.127-1.127 1.457-2.81.827-4.319-.608-1.47-2.027-2.42-3.618-2.42h-.055v-2h.055c1.591 0 3.011-.95 3.632-2.452.616-1.478.286-3.16-.841-4.287l-.042-.041 1.416-1.416.042.042c1.127 1.126 2.81 1.455 4.318.827 1.47-.607 2.42-2.027 2.42-3.618v-.055h2v.055c0 1.591.95 3.011 2.452 3.631 1.307.545 2.774.346 3.876-.488.519.467 1.107.857 1.748 1.154-1.059 1.125-1.363 2.757-.749 4.228zm32.673-14.58c0 .565-.121 1.104-.346 1.612-1.571.844-2.654 2.483-2.654 4.388h2c0-1.654 1.346-3 3-3s3 1.346 3 3-1.346 3-3 3h-20c-1.103 0-2-.897-2-2s.897-2 2-2v-2c-2.206 0-4 1.794-4 4 0 .732.212 1.409.556 2h-7.556c-2.757 0-5-2.243-5-5s2.243-5 5-5 5 2.243 5 5h2c0-3.86-3.141-7-7-7-.296 0-.587.025-.874.061.361-1.478 1.537-2.669 3.077-2.98l.802-.162-.005-.919c0-3.315 2.007-6.213 5-7.415v1.415h2.055c.778 0 1.473.465 1.786 1.222.303.726.143 1.551-.409 2.102l-1.456 1.456 4.244 4.244 1.456-1.455c.552-.55 1.376-.712 2.141-.393.718.297 1.183.991 1.183 1.769v.156c-2.279.465-4 2.484-4 4.899h2c0-1.654 1.346-3 3-3h5v-2c2.206 0 4 1.794 4 4zm1.313-12.548c-.616 1.478-.286 3.16.841 4.287l.042.041-1.416 1.416-.042-.042c-1.127-1.126-2.811-1.455-4.318-.827-1.47.607-2.42 2.027-2.42 3.618v.055h-2v-.055c0-1.591-.95-3.011-2.452-3.631-1.477-.617-3.159-.287-4.286.84l-.042.042-1.416-1.416.042-.041c1.127-1.127 1.457-2.81.827-4.319-.608-1.47-2.027-2.42-3.618-2.42h-.055v-2h.055c1.591 0 3.011-.95 3.632-2.452.616-1.478.286-3.16-.841-4.287l-.042-.041 1.416-1.416.042.042c1.127 1.126 2.811 1.455 4.318.827 1.47-.607 2.42-2.027 2.42-3.618v-.055h2v.055c0 1.591.95 3.011 2.452 3.631 1.477.615 3.158.287 4.286-.84l.042-.042 1.416 1.416-.042.042c-1.127 1.127-1.457 2.81-.827 4.319.607 1.47 2.027 2.42 3.618 2.42h.055v2h-.055c-1.591-.001-3.01.949-3.632 2.451z"/><path d="m15 46c-1.654 0-3 1.346-3 3s1.346 3 3 3 3-1.346 3-3-1.346-3-3-3zm0 4c-.552 0-1-.449-1-1s.448-1 1-1 1 .449 1 1-.448 1-1 1z"/><path d="m15 42c-3.859 0-7 3.14-7 7s3.141 7 7 7 7-3.14 7-7-3.141-7-7-7zm0 12c-2.757 0-5-2.243-5-5s2.243-5 5-5 5 2.243 5 5-2.243 5-5 5z"/><path d="m15 27c-1.654 0-3 1.346-3 3s1.346 3 3 3 3-1.346 3-3-1.346-3-3-3zm0 4c-.552 0-1-.449-1-1s.448-1 1-1 1 .449 1 1-.448 1-1 1z"/><path d="m51 54h2v2h-2z"/><path d="m55 54h2v2h-2z"/><path d="m59 54h2v2h-2z"/><path d="m8 14c1.654 0 3-1.346 3-3 0-1.079.423-2.09 1.191-2.848.764-.753 1.76-1.152 2.868-1.152 2.107.029 3.912 1.834 3.94 3.942.026 1.887-1.286 3.553-3.123 3.961-2.246.502-3.876 2.548-3.876 4.867v2.23c0 1.654 1.346 3 3 3s3-1.346 3-3.016l-.022-1.436c4.175-1.303 7.085-5.253 7.021-9.69-.075-5.361-4.495-9.783-9.858-9.858l-.181-.001c-2.618 0-5.098 1.023-6.981 2.881-1.921 1.895-2.979 4.424-2.979 7.12 0 1.654 1.346 3 3 3zm1.383-8.696c1.507-1.486 3.487-2.305 5.568-2.305l.167.001c4.285.06 7.821 3.597 7.881 7.886.054 3.771-2.575 7.103-6.252 7.922l-.795.177.048 3.015c0 .551-.448 1-1 1s-1-.449-1-1v-2.23c0-1.39.972-2.615 2.311-2.913 2.757-.613 4.729-3.112 4.688-5.941-.043-3.163-2.752-5.872-5.929-5.916-1.632 0-3.153.613-4.283 1.728-1.152 1.137-1.787 2.654-1.787 4.272 0 .551-.448 1-1 1s-1-.449-1-1c0-2.157.847-4.18 2.383-5.696z"/></g></g></svg>