<svg version="1.1" id="Layer_1" xmlns="http://www.w3.org/2000/svg" xmlns:xlink="http://www.w3.org/1999/xlink" x="0px" y="0px" viewBox="0 0 512.001 512.001" style="enable-background:new 0 0 512.001 512.001;" xml:space="preserve">
<path style="fill:#EF3E25;" d="M136.914,142.291c44.99-31.235,115.288-27.739,115.288-27.739s81.089-3.876,127.675,32.451  c18.771,14.667,31.918,35.795,31.918,66.345c0,106.396-53.198,212.792-151.994,288.789  c-98.796-75.998-159.594-182.394-159.594-288.79C100.208,179.301,115.711,156.959,136.914,142.291z"/>
<path style="fill:#36C63F;" d="M358.598,46.155l37.998,68.398l-15.2,30.399l-1.52,2.052  c-46.587-36.326-127.675-32.451-127.675-32.451s-70.298-3.496-115.288,27.739l-13.907-27.739l37.999-68.398l22.799,45.598  l30.399-60.797l15.2,37.998l30.399-53.198L290.2,68.954l15.2-37.998l30.399,60.797L358.598,46.155z"/>
<path style="fill:#231F20;" d="M389.976,145.271l15.456-30.91l-47.198-84.958l-22.434,44.871l-31.192-62.384l-15.652,39.129  L259.801,0l-29.154,51.018L214.995,11.89l-31.192,62.384l-22.434-44.871l-47.2,84.963l12.813,25.557  c-22.956,18.096-34.592,42.762-34.592,73.427c0,53.105,15.125,108.294,43.738,159.602c28.061,50.316,69.178,97.131,118.906,135.383  l4.766,3.667l4.766-3.667c98.533-75.795,155.045-183.312,155.045-294.985C419.614,185.724,409.645,162.86,389.976,145.271z   M160.641,62.907l23.164,46.326l29.605-59.212l14.747,36.868l31.643-55.377l31.643,55.377l14.747-36.868l29.605,59.212  l23.164-46.326l28.798,51.838l-10.423,20.846c-19.737-13.014-45.814-21.814-77.708-26.179c-24.855-3.402-44.374-2.803-47.416-2.683  c-5.978-0.256-67.181-2.152-112.213,24.329l-8.156-16.317L160.641,62.907z M259.799,492.224  c-45.917-36.259-83.881-80.026-110.017-126.889c-27.319-48.985-41.758-101.541-41.758-151.986c0-27.582,11.216-49.327,33.336-64.629  l0.011-0.007c35.036-24.324,87.518-26.446,104.744-26.446c3.531,0,85.243-3.181,128.948,30.898  c19.457,15.203,28.914,34.89,28.914,60.185C403.979,318.323,351.509,419.647,259.799,492.224z"/>
<polygon style="fill:#FFFFFF;" points="183.804,205.967 183.804,190.332 168.605,190.332 168.605,175.132 153.406,175.132   153.406,190.767 168.605,190.767 168.605,205.967 "/>
<polygon style="fill:#231F20;" points="343.398,266.328 328.198,266.328 328.198,281.964 343.398,281.964 343.398,297.162   358.598,297.162 358.598,281.528 343.398,281.528 "/>
<polygon style="fill:#FFFFFF;" points="252.202,319.527 237.002,319.527 237.002,335.162 252.202,335.162 252.202,319.962   267.401,319.962 267.401,304.327 252.202,304.327 "/>
<polygon style="fill:#231F20;" points="335.798,152.333 320.599,152.333 320.599,167.533 305.4,167.533 305.4,183.167   320.599,183.167 320.599,167.967 335.798,167.967 "/>
<rect x="259.805" y="235.924" style="fill:#FFFFFF;" width="15.199" height="15.634"/>
<rect x="176.203" y="273.927" style="fill:#231F20;" width="15.199" height="15.634"/>
<rect x="297.797" y="349.931" style="fill:#FFFFFF;" width="15.2" height="15.634"/>
<g>
	<polygon style="fill:#231F20;" points="252.202,418.323 237.002,418.323 237.002,433.958 252.202,433.958 252.202,449.157    267.401,449.157 267.401,433.522 252.202,433.522  "/>
	<rect x="183.801" y="349.931" style="fill:#231F20;" width="15.2" height="15.634"/>
	<rect x="130.602" y="228.326" style="fill:#231F20;" width="15.2" height="15.634"/>
</g>
<rect x="350.996" y="197.933" style="fill:#FFFFFF;" width="15.2" height="15.634"/>
<rect x="237" y="159.93" style="fill:#231F20;" width="15.2" height="15.634"/>
<g>
</g>
<g>
</g>
<g>
</g>
<g>
</g>
<g>
</g>
<g>
</g>
<g>
</g>
<g>
</g>
<g>
</g>
<g>
</g>
<g>
</g>
<g>
</g>
<g>
</g>
<g>
</g>
<g>
</g>
</svg>